<?xml version="1.0" encoding="UTF-8" standalone="no"?>
<svg
   width="89.6353"
   height="89.004601"
   viewBox="0 0 89.6353 89.004601"
   fill="none"
   version="1.1"
   id="svg235"
   xmlns="http://www.w3.org/2000/svg"
   xmlns:svg="http://www.w3.org/2000/svg">
  <defs
     id="defs239" />
  <mask
     id="mask0_1112_23587"
     maskUnits="userSpaceOnUse"
     x="0"
     y="66"
     width="90"
     height="39">
    <path
       d="m 0.010498,74.0665 v 21.691 c 0,2.8604 1.906902,9.0575 7.389272,9.0575 H 80.8157 c 5.7208,0 9.0578,-5.7204 9.0578,-8.8191 V 71.4445 c 0,0.7151 -7.1509,2.1452 -7.6276,2.1452 -4.7673,0.9535 -9.7729,1.4302 -14.5402,1.4302 -2.8603,0 -5.7207,-0.2383 -8.5811,-0.7151 -5.0056,-0.7151 -9.7729,-2.1452 -14.3018,-4.0521 -8.5811,-3.5755 -19.069,-5.0057 -28.3652,-3.3371 -2.622,0.4767 -5.244,1.1918 -7.86602,2.1452 -1.66854,0.7151 -3.33709,1.4302 -4.76727,2.3837 -0.95345,0.7151 -3.813812,2.622 -3.813812,2.622 z"
       fill="#ffffff"
       id="path14" />
  </mask>
  <g
     id="g1619"
     style="opacity:1;fill:#ffffff;fill-opacity:1">
    <g
       id="g1355"
       transform="translate(-5.18235)"
       style="fill:#ffffff;fill-opacity:1">
      <path
         d="m 5.431315,50.7714 c 0,0 -0.2383625,-39.33 -0.2383625,-42.6671 C 4.954589,3.5754 8.7684,0 13.29731,0 h 72.93924 c 4.2905,0 8.5811,3.8138 8.5811,7.866 v 41.2369 c 0,0.2383 -2.8604,1.1918 -3.0987,1.1918 -1.6686,0.7151 -3.5755,1.1918 -5.4824,1.6685 -3.8138,0.9535 -7.6276,1.1918 -11.4415,1.1918 -3.0987,0 -6.1974,0 -9.2961,-0.4767 -1.9069,-0.2383 -3.5755,-0.7151 -5.4824,-1.1918 -6.1974,-2.1453 -12.6333,-4.5289 -19.0691,-5.9591 -7.1509,-1.6685 -14.7785,-1.6685 -21.9294,0 -2.1453,0.4767 -4.29056,0.9535 -6.43583,1.9069 -1.43018,0.4768 -3.09872,0.9535 -4.52891,1.9069 0,0 -2.621995,1.1919 -2.621995,1.4302 z"
         fill="#08212c"
         id="path12"
         style="fill:#ffffff;fill-opacity:1" />
      <g
         mask="url(#mask0_1112_23587)"
         id="g207"
         transform="translate(5.1888865,-15.6674)"
         style="fill:#ffffff;fill-opacity:1">
        <path
           d="M 3.01433,67.297 H 0.130127 v 2.8841 H 3.01433 Z"
           fill="#08212c"
           id="path17"
           style="fill:#ffffff;fill-opacity:1" />
        <path
           d="M 20.2712,67.297 H 17.387 v 2.8841 h 2.8842 z"
           fill="#08212c"
           id="path19"
           style="fill:#ffffff;fill-opacity:1" />
        <path
           d="m 26.0163,67.297 h -2.8842 v 2.8841 h 2.8842 z"
           fill="#08212c"
           id="path21"
           style="fill:#ffffff;fill-opacity:1" />
        <path
           d="M 31.7611,67.297 H 28.877 v 2.8841 h 2.8841 z"
           fill="#08212c"
           id="path23"
           style="fill:#ffffff;fill-opacity:1" />
        <path
           d="M 3.01433,78.7861 H 0.130127 v 2.8842 H 3.01433 Z"
           fill="#08212c"
           id="path25"
           style="fill:#ffffff;fill-opacity:1" />
        <path
           d="M 8.7592,78.7861 H 5.875 v 2.8842 h 2.8842 z"
           fill="#08212c"
           id="path27"
           style="fill:#ffffff;fill-opacity:1" />
        <path
           d="M 20.2712,78.7861 H 17.387 v 2.8842 h 2.8842 z"
           fill="#08212c"
           id="path29"
           style="fill:#ffffff;fill-opacity:1" />
        <path
           d="m 14.5275,78.7861 h -2.8842 v 2.8842 h 2.8842 z"
           fill="#08212c"
           id="path31"
           style="fill:#ffffff;fill-opacity:1" />
        <path
           d="m 26.0163,78.7861 h -2.8842 v 2.8842 h 2.8842 z"
           fill="#08212c"
           id="path33"
           style="fill:#ffffff;fill-opacity:1" />
        <path
           d="M 37.5292,78.7861 H 34.645 v 2.8842 h 2.8842 z"
           fill="#08212c"
           id="path35"
           style="fill:#ffffff;fill-opacity:1" />
        <path
           d="M 31.7611,78.7861 H 28.877 v 2.8842 h 2.8841 z"
           fill="#08212c"
           id="path37"
           style="fill:#ffffff;fill-opacity:1" />
        <path
           d="M 8.7592,73.0415 H 5.875 v 2.8842 h 2.8842 z"
           fill="#08212c"
           id="path39"
           style="fill:#ffffff;fill-opacity:1" />
        <path
           d="M 20.2712,73.0415 H 17.387 v 2.8842 h 2.8842 z"
           fill="#08212c"
           id="path41"
           style="fill:#ffffff;fill-opacity:1" />
        <path
           d="m 14.5275,73.0415 h -2.8842 v 2.8842 h 2.8842 z"
           fill="#08212c"
           id="path43"
           style="fill:#ffffff;fill-opacity:1" />
        <path
           d="m 26.0163,73.0415 h -2.8842 v 2.8842 h 2.8842 z"
           fill="#08212c"
           id="path45"
           style="fill:#ffffff;fill-opacity:1" />
        <path
           d="M 37.5292,73.0415 H 34.645 v 2.8842 h 2.8842 z"
           fill="#08212c"
           id="path47"
           style="fill:#ffffff;fill-opacity:1" />
        <path
           d="M 31.7611,73.0415 H 28.877 v 2.8842 h 2.8841 z"
           fill="#08212c"
           id="path49"
           style="fill:#ffffff;fill-opacity:1" />
        <path
           d="M 3.01433,84.5545 H 0.130127 v 2.8842 H 3.01433 Z"
           fill="#08212c"
           id="path51"
           style="fill:#ffffff;fill-opacity:1" />
        <path
           d="M 8.7592,84.5545 H 5.875 v 2.8842 h 2.8842 z"
           fill="#08212c"
           id="path53"
           style="fill:#ffffff;fill-opacity:1" />
        <path
           d="M 20.2712,84.5545 H 17.387 v 2.8842 h 2.8842 z"
           fill="#08212c"
           id="path55"
           style="fill:#ffffff;fill-opacity:1" />
        <path
           d="m 14.5275,84.5545 h -2.8842 v 2.8842 h 2.8842 z"
           fill="#08212c"
           id="path57"
           style="fill:#ffffff;fill-opacity:1" />
        <path
           d="m 26.0163,84.5545 h -2.8842 v 2.8842 h 2.8842 z"
           fill="#08212c"
           id="path59"
           style="fill:#ffffff;fill-opacity:1" />
        <path
           d="M 37.5292,84.5545 H 34.645 v 2.8842 h 2.8842 z"
           fill="#08212c"
           id="path61"
           style="fill:#ffffff;fill-opacity:1" />
        <path
           d="M 31.7611,84.5545 H 28.877 v 2.8842 h 2.8841 z"
           fill="#08212c"
           id="path63"
           style="fill:#ffffff;fill-opacity:1" />
        <path
           d="M 8.7592,96.0436 H 5.875 v 2.8842 h 2.8842 z"
           fill="#08212c"
           id="path65"
           style="fill:#ffffff;fill-opacity:1" />
        <path
           d="M 20.2712,96.0436 H 17.387 v 2.8842 h 2.8842 z"
           fill="#08212c"
           id="path67"
           style="fill:#ffffff;fill-opacity:1" />
        <path
           d="m 14.5275,96.0436 h -2.8842 v 2.8842 h 2.8842 z"
           fill="#08212c"
           id="path69"
           style="fill:#ffffff;fill-opacity:1" />
        <path
           d="m 26.0163,96.0436 h -2.8842 v 2.8842 h 2.8842 z"
           fill="#08212c"
           id="path71"
           style="fill:#ffffff;fill-opacity:1" />
        <path
           d="M 37.5292,96.0436 H 34.645 v 2.8842 h 2.8842 z"
           fill="#08212c"
           id="path73"
           style="fill:#ffffff;fill-opacity:1" />
        <path
           d="M 31.7611,96.0436 H 28.877 v 2.8842 h 2.8841 z"
           fill="#08212c"
           id="path75"
           style="fill:#ffffff;fill-opacity:1" />
        <path
           d="M 3.01433,90.299 H 0.130127 v 2.8842 H 3.01433 Z"
           fill="#08212c"
           id="path77"
           style="fill:#ffffff;fill-opacity:1" />
        <path
           d="M 8.7592,90.299 H 5.875 v 2.8842 h 2.8842 z"
           fill="#08212c"
           id="path79"
           style="fill:#ffffff;fill-opacity:1" />
        <path
           d="M 20.2712,90.299 H 17.387 v 2.8842 h 2.8842 z"
           fill="#08212c"
           id="path81"
           style="fill:#ffffff;fill-opacity:1" />
        <path
           d="m 14.5275,90.299 h -2.8842 v 2.8842 h 2.8842 z"
           fill="#08212c"
           id="path83"
           style="fill:#ffffff;fill-opacity:1" />
        <path
           d="m 26.0163,90.299 h -2.8842 v 2.8842 h 2.8842 z"
           fill="#08212c"
           id="path85"
           style="fill:#ffffff;fill-opacity:1" />
        <path
           d="M 37.5292,90.299 H 34.645 v 2.8842 h 2.8842 z"
           fill="#08212c"
           id="path87"
           style="fill:#ffffff;fill-opacity:1" />
        <path
           d="M 31.7611,90.299 H 28.877 v 2.8842 h 2.8841 z"
           fill="#08212c"
           id="path89"
           style="fill:#ffffff;fill-opacity:1" />
        <path
           d="M 20.2712,101.788 H 17.387 v 2.884 h 2.8842 z"
           fill="#08212c"
           id="path91"
           style="fill:#ffffff;fill-opacity:1" />
        <path
           d="m 14.5275,101.788 h -2.8842 v 2.884 h 2.8842 z"
           fill="#08212c"
           id="path93"
           style="fill:#ffffff;fill-opacity:1" />
        <path
           d="m 26.0163,101.788 h -2.8842 v 2.884 h 2.8842 z"
           fill="#08212c"
           id="path95"
           style="fill:#ffffff;fill-opacity:1" />
        <path
           d="M 37.5292,101.788 H 34.645 v 2.884 h 2.8842 z"
           fill="#08212c"
           id="path97"
           style="fill:#ffffff;fill-opacity:1" />
        <path
           d="M 31.7611,101.788 H 28.877 v 2.884 h 2.8841 z"
           fill="#08212c"
           id="path99"
           style="fill:#ffffff;fill-opacity:1" />
        <path
           d="m 55.0016,67.297 h -2.8842 v 2.8841 h 2.8842 z"
           fill="#08212c"
           id="path101"
           style="fill:#ffffff;fill-opacity:1" />
        <path
           d="m 49.2565,67.297 h -2.8842 v 2.8841 h 2.8842 z"
           fill="#08212c"
           id="path103"
           style="fill:#ffffff;fill-opacity:1" />
        <path
           d="m 60.7455,67.297 h -2.8842 v 2.8841 h 2.8842 z"
           fill="#08212c"
           id="path105"
           style="fill:#ffffff;fill-opacity:1" />
        <path
           d="m 72.2585,67.297 h -2.8842 v 2.8841 h 2.8842 z"
           fill="#08212c"
           id="path107"
           style="fill:#ffffff;fill-opacity:1" />
        <path
           d="m 66.4904,67.297 h -2.8842 v 2.8841 h 2.8842 z"
           fill="#08212c"
           id="path109"
           style="fill:#ffffff;fill-opacity:1" />
        <path
           d="m 78.0036,67.297 h -2.8842 v 2.8841 h 2.8842 z"
           fill="#08212c"
           id="path111"
           style="fill:#ffffff;fill-opacity:1" />
        <path
           d="m 89.4921,67.297 h -2.8842 v 2.8841 h 2.8842 z"
           fill="#08212c"
           id="path113"
           style="fill:#ffffff;fill-opacity:1" />
        <path
           d="m 83.7485,67.297 h -2.8842 v 2.8841 h 2.8842 z"
           fill="#08212c"
           id="path115"
           style="fill:#ffffff;fill-opacity:1" />
        <path
           d="m 43.4884,78.7861 h -2.8842 v 2.8842 h 2.8842 z"
           fill="#08212c"
           id="path117"
           style="fill:#ffffff;fill-opacity:1" />
        <path
           d="m 55.0016,78.7861 h -2.8842 v 2.8842 h 2.8842 z"
           fill="#08212c"
           id="path119"
           style="fill:#ffffff;fill-opacity:1" />
        <path
           d="m 49.2565,78.7861 h -2.8842 v 2.8842 h 2.8842 z"
           fill="#08212c"
           id="path121"
           style="fill:#ffffff;fill-opacity:1" />
        <path
           d="m 60.7455,78.7861 h -2.8842 v 2.8842 h 2.8842 z"
           fill="#08212c"
           id="path123"
           style="fill:#ffffff;fill-opacity:1" />
        <path
           d="m 72.2585,78.7861 h -2.8842 v 2.8842 h 2.8842 z"
           fill="#08212c"
           id="path125"
           style="fill:#ffffff;fill-opacity:1" />
        <path
           d="m 66.4904,78.7861 h -2.8842 v 2.8842 h 2.8842 z"
           fill="#08212c"
           id="path127"
           style="fill:#ffffff;fill-opacity:1" />
        <path
           d="m 78.0036,78.7861 h -2.8842 v 2.8842 h 2.8842 z"
           fill="#08212c"
           id="path129"
           style="fill:#ffffff;fill-opacity:1" />
        <path
           d="m 89.4921,78.7861 h -2.8842 v 2.8842 h 2.8842 z"
           fill="#08212c"
           id="path131"
           style="fill:#ffffff;fill-opacity:1" />
        <path
           d="m 83.7485,78.7861 h -2.8842 v 2.8842 h 2.8842 z"
           fill="#08212c"
           id="path133"
           style="fill:#ffffff;fill-opacity:1" />
        <path
           d="m 43.4884,73.0415 h -2.8842 v 2.8842 h 2.8842 z"
           fill="#08212c"
           id="path135"
           style="fill:#ffffff;fill-opacity:1" />
        <path
           d="m 49.2565,73.0415 h -2.8842 v 2.8842 h 2.8842 z"
           fill="#08212c"
           id="path137"
           style="fill:#ffffff;fill-opacity:1" />
        <path
           d="m 89.4921,73.0415 h -2.8842 v 2.8842 h 2.8842 z"
           fill="#08212c"
           id="path139"
           style="fill:#ffffff;fill-opacity:1" />
        <path
           d="m 43.4884,84.5545 h -2.8842 v 2.8842 h 2.8842 z"
           fill="#08212c"
           id="path141"
           style="fill:#ffffff;fill-opacity:1" />
        <path
           d="m 55.0016,84.5545 h -2.8842 v 2.8842 h 2.8842 z"
           fill="#08212c"
           id="path143"
           style="fill:#ffffff;fill-opacity:1" />
        <path
           d="m 49.2565,84.5545 h -2.8842 v 2.8842 h 2.8842 z"
           fill="#08212c"
           id="path145"
           style="fill:#ffffff;fill-opacity:1" />
        <path
           d="m 60.7455,84.5545 h -2.8842 v 2.8842 h 2.8842 z"
           fill="#08212c"
           id="path147"
           style="fill:#ffffff;fill-opacity:1" />
        <path
           d="m 72.2585,84.5545 h -2.8842 v 2.8842 h 2.8842 z"
           fill="#08212c"
           id="path149"
           style="fill:#ffffff;fill-opacity:1" />
        <path
           d="m 66.4904,84.5545 h -2.8842 v 2.8842 h 2.8842 z"
           fill="#08212c"
           id="path151"
           style="fill:#ffffff;fill-opacity:1" />
        <path
           d="m 78.0036,84.5545 h -2.8842 v 2.8842 h 2.8842 z"
           fill="#08212c"
           id="path153"
           style="fill:#ffffff;fill-opacity:1" />
        <path
           d="m 89.4921,84.5545 h -2.8842 v 2.8842 h 2.8842 z"
           fill="#08212c"
           id="path155"
           style="fill:#ffffff;fill-opacity:1" />
        <path
           d="m 83.7485,84.5545 h -2.8842 v 2.8842 h 2.8842 z"
           fill="#08212c"
           id="path157"
           style="fill:#ffffff;fill-opacity:1" />
        <path
           d="m 43.4884,96.0436 h -2.8842 v 2.8842 h 2.8842 z"
           fill="#08212c"
           id="path159"
           style="fill:#ffffff;fill-opacity:1" />
        <path
           d="m 55.0016,96.0436 h -2.8842 v 2.8842 h 2.8842 z"
           fill="#08212c"
           id="path161"
           style="fill:#ffffff;fill-opacity:1" />
        <path
           d="m 49.2565,96.0436 h -2.8842 v 2.8842 h 2.8842 z"
           fill="#08212c"
           id="path163"
           style="fill:#ffffff;fill-opacity:1" />
        <path
           d="m 60.7455,96.0436 h -2.8842 v 2.8842 h 2.8842 z"
           fill="#08212c"
           id="path165"
           style="fill:#ffffff;fill-opacity:1" />
        <path
           d="m 72.2585,96.0436 h -2.8842 v 2.8842 h 2.8842 z"
           fill="#08212c"
           id="path167"
           style="fill:#ffffff;fill-opacity:1" />
        <path
           d="m 66.4904,96.0436 h -2.8842 v 2.8842 h 2.8842 z"
           fill="#08212c"
           id="path169"
           style="fill:#ffffff;fill-opacity:1" />
        <path
           d="m 78.0036,96.0436 h -2.8842 v 2.8842 h 2.8842 z"
           fill="#08212c"
           id="path171"
           style="fill:#ffffff;fill-opacity:1" />
        <path
           d="m 83.7485,96.0436 h -2.8842 v 2.8842 h 2.8842 z"
           fill="#08212c"
           id="path173"
           style="fill:#ffffff;fill-opacity:1" />
        <path
           d="m 43.4884,90.299 h -2.8842 v 2.8842 h 2.8842 z"
           fill="#08212c"
           id="path175"
           style="fill:#ffffff;fill-opacity:1" />
        <path
           d="m 55.0016,90.299 h -2.8842 v 2.8842 h 2.8842 z"
           fill="#08212c"
           id="path177"
           style="fill:#ffffff;fill-opacity:1" />
        <path
           d="m 49.2565,90.299 h -2.8842 v 2.8842 h 2.8842 z"
           fill="#08212c"
           id="path179"
           style="fill:#ffffff;fill-opacity:1" />
        <path
           d="m 60.7455,90.299 h -2.8842 v 2.8842 h 2.8842 z"
           fill="#08212c"
           id="path181"
           style="fill:#ffffff;fill-opacity:1" />
        <path
           d="m 72.2585,90.299 h -2.8842 v 2.8842 h 2.8842 z"
           fill="#08212c"
           id="path183"
           style="fill:#ffffff;fill-opacity:1" />
        <path
           d="m 66.4904,90.299 h -2.8842 v 2.8842 h 2.8842 z"
           fill="#08212c"
           id="path185"
           style="fill:#ffffff;fill-opacity:1" />
        <path
           d="m 78.0036,90.299 h -2.8842 v 2.8842 h 2.8842 z"
           fill="#08212c"
           id="path187"
           style="fill:#ffffff;fill-opacity:1" />
        <path
           d="m 89.4921,90.299 h -2.8842 v 2.8842 h 2.8842 z"
           fill="#08212c"
           id="path189"
           style="fill:#ffffff;fill-opacity:1" />
        <path
           d="m 83.7485,90.299 h -2.8842 v 2.8842 h 2.8842 z"
           fill="#08212c"
           id="path191"
           style="fill:#ffffff;fill-opacity:1" />
        <path
           d="m 43.4884,101.788 h -2.8842 v 2.884 h 2.8842 z"
           fill="#08212c"
           id="path193"
           style="fill:#ffffff;fill-opacity:1" />
        <path
           d="m 55.0016,101.788 h -2.8842 v 2.884 h 2.8842 z"
           fill="#08212c"
           id="path195"
           style="fill:#ffffff;fill-opacity:1" />
        <path
           d="m 49.2565,101.788 h -2.8842 v 2.884 h 2.8842 z"
           fill="#08212c"
           id="path197"
           style="fill:#ffffff;fill-opacity:1" />
        <path
           d="m 60.7455,101.788 h -2.8842 v 2.884 h 2.8842 z"
           fill="#08212c"
           id="path199"
           style="fill:#ffffff;fill-opacity:1" />
        <path
           d="m 72.2585,101.788 h -2.8842 v 2.884 h 2.8842 z"
           fill="#08212c"
           id="path201"
           style="fill:#ffffff;fill-opacity:1" />
        <path
           d="m 66.4904,101.788 h -2.8842 v 2.884 h 2.8842 z"
           fill="#08212c"
           id="path203"
           style="fill:#ffffff;fill-opacity:1" />
        <path
           d="m 78.0036,101.788 h -2.8842 v 2.884 h 2.8842 z"
           fill="#08212c"
           id="path205"
           style="fill:#ffffff;fill-opacity:1" />
      </g>
    </g>
  </g>
</svg>
